<svg width="350" height="510" viewBox="0 0 350 510" fill="none" xmlns="http://www.w3.org/2000/svg">
<g clip-path="url(#clip0_9401_3)">
<rect width="350" height="510" fill="white"/>
<rect width="124" height="36" fill="#D67E34"/>
<path d="M13.6895 19.1406V23H12.6104V13.7197H15.1558C16.2941 13.7197 17.1341 13.9377 17.6758 14.3735C18.2217 14.8094 18.4946 15.4653 18.4946 16.3413C18.4946 17.5685 17.8726 18.3979 16.6284 18.8296L19.1484 23H17.8726L15.6255 19.1406H13.6895ZM13.6895 18.2139H15.1685C15.9302 18.2139 16.4888 18.0636 16.8442 17.7632C17.1997 17.4585 17.3774 17.0036 17.3774 16.3984C17.3774 15.7848 17.1955 15.3426 16.8315 15.0718C16.4718 14.8009 15.8921 14.6655 15.0923 14.6655H13.6895V18.2139ZM25.8198 23H20.6465V13.7197H25.8198V14.6782H21.7256V17.668H25.5723V18.6201H21.7256V22.0352H25.8198V23ZM31.8564 14.5513C30.8366 14.5513 30.0304 14.8919 29.438 15.5732C28.8498 16.2503 28.5557 17.1792 28.5557 18.3599C28.5557 19.5744 28.8392 20.5138 29.4062 21.1782C29.9775 21.8384 30.79 22.1685 31.8438 22.1685C32.4912 22.1685 33.2297 22.0521 34.0591 21.8193V22.7651C33.4159 23.0063 32.6224 23.127 31.6787 23.127C30.3118 23.127 29.256 22.7122 28.5112 21.8828C27.7707 21.0534 27.4004 19.8748 27.4004 18.3472C27.4004 17.3908 27.5781 16.5529 27.9336 15.8335C28.2933 15.1141 28.8096 14.5597 29.4824 14.1704C30.1595 13.7811 30.9551 13.5864 31.8691 13.5864C32.8424 13.5864 33.693 13.7642 34.4209 14.1196L33.9639 15.0464C33.2614 14.7163 32.5589 14.5513 31.8564 14.5513ZM44.1392 18.3472C44.1392 19.8325 43.7625 21.0005 43.0093 21.8511C42.2603 22.7017 41.2171 23.127 39.8799 23.127C38.513 23.127 37.4572 22.7101 36.7124 21.8765C35.9718 21.0386 35.6016 19.8579 35.6016 18.3345C35.6016 16.8237 35.974 15.6536 36.7188 14.8242C37.4635 13.9906 38.5215 13.5737 39.8926 13.5737C41.2256 13.5737 42.2666 13.9969 43.0156 14.8433C43.7646 15.6896 44.1392 16.8576 44.1392 18.3472ZM36.7441 18.3472C36.7441 19.604 37.0107 20.5583 37.5439 21.21C38.0814 21.8574 38.86 22.1812 39.8799 22.1812C40.9082 22.1812 41.6847 21.8574 42.2095 21.21C42.7342 20.5625 42.9966 19.6082 42.9966 18.3472C42.9966 17.0988 42.7342 16.153 42.2095 15.5098C41.689 14.8623 40.9167 14.5386 39.8926 14.5386C38.8643 14.5386 38.0814 14.8644 37.5439 15.5161C37.0107 16.1636 36.7441 17.1073 36.7441 18.3472ZM50.3218 23L47.1733 14.7734H47.1226C47.1818 15.4251 47.2114 16.1995 47.2114 17.0967V23H46.2148V13.7197H47.8398L50.7788 21.375H50.8296L53.7939 13.7197H55.4062V23H54.3271V17.0205C54.3271 16.335 54.3568 15.5902 54.416 14.7861H54.3652L51.1914 23H50.3218ZM62.0649 23L58.9165 14.7734H58.8657C58.925 15.4251 58.9546 16.1995 58.9546 17.0967V23H57.958V13.7197H59.583L62.522 21.375H62.5728L65.5371 13.7197H67.1494V23H66.0703V17.0205C66.0703 16.335 66.0999 15.5902 66.1592 14.7861H66.1084L62.9346 23H62.0649ZM74.8745 23H69.7012V13.7197H74.8745V14.6782H70.7803V17.668H74.627V18.6201H70.7803V22.0352H74.8745V23ZM84.1865 23H82.9551L77.8833 15.2114H77.8325C77.9002 16.1255 77.9341 16.9634 77.9341 17.7251V23H76.9375V13.7197H78.1562L83.2153 21.4766H83.2661C83.2576 21.3623 83.2386 20.9963 83.209 20.3784C83.1794 19.7563 83.1688 19.312 83.1772 19.0454V13.7197H84.1865V23ZM94.146 18.271C94.146 19.8029 93.7292 20.9751 92.8955 21.7876C92.0661 22.5959 90.8706 23 89.3091 23H86.7383V13.7197H89.582C91.0251 13.7197 92.1465 14.1196 92.9463 14.9194C93.7461 15.7192 94.146 16.8364 94.146 18.271ZM93.0034 18.3091C93.0034 17.0988 92.6987 16.1868 92.0894 15.5732C91.4842 14.9596 90.5828 14.6528 89.3853 14.6528H87.8174V22.0669H89.1313C90.4178 22.0669 91.3848 21.7516 92.0322 21.1211C92.6797 20.4863 93.0034 19.549 93.0034 18.3091ZM101.395 23H96.2217V13.7197H101.395V14.6782H97.3008V17.668H101.147V18.6201H97.3008V22.0352H101.395V23ZM110.866 18.271C110.866 19.8029 110.449 20.9751 109.615 21.7876C108.786 22.5959 107.59 23 106.029 23H103.458V13.7197H106.302C107.745 13.7197 108.866 14.1196 109.666 14.9194C110.466 15.7192 110.866 16.8364 110.866 18.271ZM109.723 18.3091C109.723 17.0988 109.418 16.1868 108.809 15.5732C108.204 14.9596 107.303 14.6528 106.105 14.6528H104.537V22.0669H105.851C107.138 22.0669 108.104 21.7516 108.752 21.1211C109.399 20.4863 109.723 19.549 109.723 18.3091Z" fill="black"/>
</g>
<defs>
<clipPath id="clip0_9401_3">
<rect width="350" height="510" fill="white"/>
</clipPath>
</defs>
</svg>
